# xmcd
#
# Track frame offsets:
#	150
#	23808
#	43992
#	62922
#	83524
#	102983
#	129251
#	150639
#	171119
#	189199
#
# Disc length: 2779 seconds
#
# Revision: 1
# Processed by: cddbd v1.5.2PL0 Copyright (c) Steve Scherf et al.
# Submitted via: EasyCDDAExtractor 7.1.3.1
#
DISCID=760ad90a
DTITLE=AF - 46:19
DYEAR=2004
DGENRE=Blues
TTITLE0=Yarının Anıları
TTITLE1=Böyle Ayrılık Olmaz
TTITLE2=Son Perde
TTITLE3=Yoksun Sen
TTITLE4=Motor
TTITLE5=Yaz Yaz
TTITLE6=Boş Yere
TTITLE7=46:19
TTITLE8=Yıldızların Altında
TTITLE9=Elveda
EXTD=
EXTT0=
EXTT1=
EXTT2=
EXTT3=
EXTT4=
EXTT5=
EXTT6=
EXTT7=
EXTT8=
EXTT9=
PLAYORDER=
